<svg xmlns="http://www.w3.org/2000/svg" width="601.05" height="216.15" viewBox="0 0 601.05 216.15"><path d="M590.71,544.2c1-14.39,2-28.66,3.06-42.94l-1.1-.1c-2.81,14.26-5.63,28.51-8.52,43.15H556.28c-2.86-14.48-5.67-28.74-8.49-43h-.55c0,4.61-.17,9.23,0,13.83.22,4.89.77,9.78,1.25,14.66.47,4.71,1,9.41,1.59,14.46H512.42c-.06-.21-.13-.42-.2-.63a21.23,21.23,0,0,1,2-1c6.22-2.3,6.67-7.7,6.88-13.09q.6-15,.92-30c.37-17.66.61-35.32,1-53,.24-12.27.8-24.54.72-36.81A33.37,33.37,0,0,0,521,397.9c-1-2.37-3.51-4.1-5.41-6.19H548.8q3.38,19.92,6.76,39.9l1.14-.23V391.84h27V431.4c4.37-12.8,5.19-26.39,7.88-39.74h33.27c0,.36.1.8,0,.86-7.11,4.2-8.31,11.06-8.24,18.42.26,27.12.38,54.24,1,81.36.31,14.4,1.28,28.81,2.47,43.17.19,2.27,3,4.43,4.88,6.42.78.84,2.17,1.11,3.14,2.31Z" transform="translate(-409.39 -349.25)" fill="#fff"/><path d="M714.86,545.1q-3.54-19.14-7.09-38.27l-.87.15c1,12.68,2.06,25.36,3.11,38.26H672c2.41-2.3,4.5-4.07,6.3-6.09a6.15,6.15,0,0,0,1.48-3.49c.64-14.6,1.37-29.2,1.68-43.81.48-22.55.71-45.11.9-67.67,0-4.76-.65-9.53-.81-14.3-.07-2.15.6-4.34.45-6.48-.37-5-3.42-8.2-8.19-10,.11-.35.23-.7.35-1h11.32c7,0,14.11-.13,21.15.12,1.26.05,3.38,1.56,3.55,2.64,1.73,10.74,3.13,21.53,5.6,32.22-.66-11.73-1.31-23.47-2-35.55h33.48c-1.06,2.63-2.86,5.53-3.33,8.63A128.14,128.14,0,0,0,742.79,417c-.47,22.15-1.3,44.31-1,66.45.24,19.08,1.74,38.15,2.84,57.22.08,1.42,1.44,2.78,2.39,4.48Z" transform="translate(-409.39 -349.25)" fill="#fff"/><path d="M416.5,392.63h39.68q2,19.58,4.1,39.26h1.26l4.29-39.25h38.79c-.7.76-1.11,1.53-1.76,1.87-7.78,4.14-11.84,11-13.18,19.3-6.61,40.72-5.28,81,7.18,120.6,1.8,5.74,6,8.56,11.44,10.58H464.84c-1.22-12.54-2.46-25.24-3.69-37.94H460c-1.19,12.56-2.38,25.12-3.61,38.08H413.35l-.17-.6c1.11-.51,2.45-.78,3.28-1.58,2.38-2.3,5.47-4.42,6.66-7.29,8.39-20.22,9-41.67,9.08-63.14,0-7-.57-14.11-.27-21.15.63-15.13-3.14-29.4-7.89-43.51a9.13,9.13,0,0,1-.46-1.26C421.79,397.82,421.79,397.82,416.5,392.63Z" transform="translate(-409.39 -349.25)" fill="#fff"/><path d="M831.36,545.18c7.43-2.51,8.45-8.42,8.68-14.72.36-10,.69-20,.9-30,.37-17.66.61-35.32,1-53,.24-12.27.81-24.54.72-36.81a33.37,33.37,0,0,0-2.72-11.89c-1-2.37-3.48-4.11-5.33-6.17h33.19q3.35,19.94,6.68,39.81l1.38-.13v-39.6H903.6c-4.38,50.9-3.56,101.67-.12,152.62H875.56q-4.48-21.56-9-43.07l-1,.06c1,14.2,2,28.4,3,42.9Z" transform="translate(-409.39 -349.25)" fill="#fff"/><path d="M709.8,551.38q93.91,0,187.82,0c33.93,0,67.86.18,101.79.28a15.6,15.6,0,0,1,3.14.09c3.63.8,6.65,2.57,6.79,6.67s-3,5.66-6.28,6.57a20.81,20.81,0,0,1-5.37.28q-84,.08-168,.13-143,0-286-.06-61.93,0-123.87-.05c-6.93,0-10.25-2.29-10.38-6.73-.12-4.23,4.06-6.89,10.79-6.9q95.94-.13,191.89-.28Q660.94,551.33,709.8,551.38Z" transform="translate(-409.39 -349.25)" fill="#089df9"/><path d="M825,430.22c-1-3.17-1.6-6.52-3-9.48-3.78-7.83-10.22-11.29-18.36-10.34-6.34.75-12.81,6.4-13.85,14.32-1.57,12-1.89,24.26-2.76,36.76,16.66,1.47,21.84-8.5,24.08-22.11,2.7,4.38,2.56,48.87,0,53.76a26.07,26.07,0,0,1-1.67-4.11c-1.54-7.62-5.12-13.58-13.08-15.75-2.52-.7-5.24-.7-8.22-1.06,0,9.69,0,18.91,0,28.12,0,2.22.51,4.43.5,6.64,0,8.17,6.54,16.47,14.2,17.73s16.61-5,19.2-12.82a29.93,29.93,0,0,1,2.75-5c.57,2,1.61,3.91,1.64,5.88.17,10.74.08,21.49.08,32.48H757.42a14.14,14.14,0,0,0,2.6-2.36c1.54-2.47,3.75-4.94,4.14-7.63A144.67,144.67,0,0,0,765.24,517c.39-21.27,1.19-42.54.76-63.79-.34-17.07-2-34.14-3.68-51.14-.36-3.52-3.72-6.74-5.78-10.26a18.78,18.78,0,0,1,2.63-.28q30.84,0,61.68,0c5.83,0,6.59.85,6.59,6.8,0,9.15,0,18.3,0,27.45a26.25,26.25,0,0,1-.81,4.41Z" transform="translate(-409.39 -349.25)" fill="#fff"/><path d="M908.46,429.26a24.9,24.9,0,0,1-.79-4.38c-.07-9.61.13-19.22-.12-28.81-.11-4.34,2.11-5.46,5.71-5.48,4.65,0,9.31,0,14,0q38.06,0,76.11,0c6.81,0,7.24,1.91,7.09,6.82-.27,9.15,0,18.31-.12,27.46a26.13,26.13,0,0,1-.77,4.41l-1.35.16a48.18,48.18,0,0,1-2.28-6.2c-1.57-7-7.31-13-13.5-13.7-7.81-.84-15.37,2-18.06,10.25-1.53,4.72-3.15,9.6-3.49,14.49-.77,10.87-1,21.78-1,32.68,0,10,.49,20,.87,30,.12,3.25.86,6.49.81,9.73-.11,7.42-.54,14.84-.84,22.26-.27,6.62,1.2,12.29,8.11,15.36H938c9.15-3.46,9.63-10.36,9.3-17.66s-.88-14.54-.84-21.81c0-10.59.68-21.19.8-31.79.15-12.93.4-25.89-.13-38.8-.26-6.37-1.37-12.81-5.43-18.38-6.59-9.05-21.62-8.5-26.9,1.36-2,3.82-3.37,8-5,12Z" transform="translate(-409.39 -349.25)" fill="#fff"/><path d="M635.92,391.73h32.67V544.32H632.9c7-2.65,8.15-8,8.26-14.73.64-40,1.67-80.05,2.49-120.08C643.84,400.28,642.53,397.48,635.92,391.73Z" transform="translate(-409.39 -349.25)" fill="#fff"/><path d="M519.36,360.86h98.12c.75,0,1.5,0,2.25,0,4.54.26,8.23,3.2,8.39,6.67.15,3-3.41,6.32-7.94,6.54-6.29.31-12.6.11-18.9.12l-156.6.15H421.73q-1.35,0-2.7-.06c-5.85-.26-9.51-2.93-9.46-6.89,0-3.6,4.36-6.53,9.86-6.54Q469.4,360.83,519.36,360.86Z" transform="translate(-409.39 -349.25)" fill="#089df9"/><path d="M906.29,360.85H999a19.32,19.32,0,0,1,3.14,0c3.72.65,6.72,2.54,6.93,6.52s-2.85,5.64-6.28,6.44a17.35,17.35,0,0,1-4,.34q-91.38.1-182.75.14c-3,0-6.24.18-8.83-1-2.06-.91-4.38-3.59-4.58-5.68-.17-1.83,2.08-4.47,4-5.72,1.67-1.12,4.29-1.09,6.49-1.09Q859.71,360.8,906.29,360.85Z" transform="translate(-409.39 -349.25)" fill="#089df9"/><path d="M730.8,382.46c-7.68,0-15.14.28-22.55-.12-4-.22-6-3.35-6-7.21q-.19-11.47.12-22.95c0-1.06,1.56-3,2.21-2.93,1.77.22,4.68,1,4.91,2.07.63,2.8,2.15,2.76,4.22,2.71,3.87-.09,8.06,1.19,10.45-3.71.4-.83,3.76-1.3,4.64-.58a9.46,9.46,0,0,1,3,5.43c.31,1.94-.58,4.07-1.13,7.21-4.69,0-9.69-.11-14.68.05-2,.06-5.49.42-5.62,1.14a37.72,37.72,0,0,0,0,9.73c0,.45,1.67,1,2.6,1.11,4,.31,8.07.55,12.11.63C731.44,375.16,731.45,375.11,730.8,382.46Zm-.23-28.13L727,351.07c-1,1.14-2.46,2.21-2.65,3.47-.11.78,1.72,2.44,2.84,2.59C728,357.25,729.1,355.61,730.57,354.33Z" transform="translate(-409.39 -349.25)" fill="#fff"/><path d="M652.45,349.94c3.9,0,7.8-.13,11.69.1,1,.06,2.81,1.21,2.81,1.89.12,8.42.06,16.8-6.27,23.6-5,5.42-11.5,6.7-18.37,6.65-1.07,0-2.69-1.83-3-3.1-.55-2-.36-4.15,2.66-4.64a53.88,53.88,0,0,0,9.51-2.23c5-1.78,6.56-6.21,7.49-10.91.48-2.42-.55-3.74-3.07-3.78-2,0-3.91.1-5.85-.07-3.6-.3-6.23.1-5.71,4.87.09.8-2.13,2.57-3.3,2.6s-3.55-1.35-3.68-2.34a43.81,43.81,0,0,1,0-10.3c.09-.88,1.88-2.17,3-2.24C644.34,349.78,648.4,349.94,652.45,349.94Z" transform="translate(-409.39 -349.25)" fill="#fff"/><path d="M782,358.37c-4.45,0-8.9-.07-13.34,0-2.74.05-3.58-1.73-3.12-3.74.34-1.47,1.83-3.76,2.89-3.81,7.15-.34,14.33-.18,22.3-.18-.44,5-.71,9.59-1.27,14.1-.45,3.56.75,6,3.11,8.81,1.95,2.28,2.32,5.91,3.39,8.94l-1.89,1.42-10.31-8c-4.81,2.19-9.48,4.8-14.48,6.43-4.08,1.33-5.71-.44-4.8-4.62.24-1.11,1.91-2.38,3.16-2.74C776.56,372.44,781.91,366.59,782,358.37Z" transform="translate(-409.39 -349.25)" fill="#fff"/><path d="M675.76,382.59c-3.14.07-6,.31-6-4.1,0-2.83.83-3.77,3.79-4.12,4-.48,8.38-1.2,11.86-3.14,4.87-2.7,6.81-7.84,7-13.35.1-3.73,2-4.5,5.23-4.24,4,.33,2.72,2.95,2.11,4.92-1.64,5.33-2.65,11.14-5.55,15.73C690.09,380.69,682.86,382.22,675.76,382.59Z" transform="translate(-409.39 -349.25)" fill="#fff"/><path d="M764.49,360.66a42.55,42.55,0,0,0,0,4.36c.38,3.23-1.1,4.1-4.16,4-7.48-.18-15-.1-22.44-.05-2.45,0-4.37,0-4.33-3.43,0-3.08.46-5.48,4.13-5.43,4.93.07,9.85.39,14.77.51C756.32,360.73,760.15,360.66,764.49,360.66Z" transform="translate(-409.39 -349.25)" fill="#fff"/><path d="M669.72,350c5.06,0,9.69-.22,14.27.16,1,.09,2.47,2.09,2.77,3.42.44,2,.53,4.5-2.66,4.57-3.9.1-7.89.55-11.68-.09C667.41,357.18,670.44,353.15,669.72,350Z" transform="translate(-409.39 -349.25)" fill="#fff"/></svg>