<svg xmlns="http://www.w3.org/2000/svg" width="644.91" height="645.53" viewBox="0 0 644.91 645.53"><path d="M1208.46,681.15c2,8.22,4,16.44,6.29,26.06l-20-17.52c.47,9.35.87,17.13,1.29,25.54l-13.16-8v48.09l-25.57-26.6a42.57,42.57,0,0,1,3.06-4.32c14.61-16.15,26.27-34.08,31.88-55.31a57,57,0,0,0,1.7-19.7c-1.29-13-13.71-18.16-24.23-10.54a31.49,31.49,0,0,0-6,5.27c-5.81,7.07-11.66,14.14-17,21.57-6.06,8.45-11.59,17.3-17.73,26.55.09-1.64.1-2.7.21-3.75,1.39-13.38,3.34-26.74,4.1-40.16,1.67-29.82,1.51-59.64-2.37-89.32-1.74-13.24-4.16-26.37-10.26-38.44-1.53-3-3.75-5.72-5.66-8.56,2.34,34.62.76,68.58-1.55,102.59a22.72,22.72,0,0,1-2.29-5c-6.09-17.46-12.64-34.77-18.16-52.4-15.07-48.13-43-88-78.37-123.1a50,50,0,0,0-4.72-3.67l-.84.88,67.17,122c-15.29-14.14-30.35-28.33-44.72-43.18s-27.84-30.16-42.44-46.07c13.89,40.7,25.51,80.7,32.64,122-5-5.68-9.41-11.65-14.11-17.42q-23.17-28.47-46.49-56.83c-19.54-21.15-38.82-42.54-58.76-63.3-6.87-7.14-15.24-12.88-23.21-18.88-3.38-2.55-7.49-4.11-11.27-6.12l-1.82.75c.48,4.61,0,9.58,1.61,13.78,5.14,13.69,10.24,27.49,16.76,40.54,18.2,36.4,39.94,70.76,62.09,104.86,1,1.55,1.88,3.19,2.81,4.79A452.56,452.56,0,0,1,879,523.85c-21.3-24-40.06-49.69-52.73-79.77-17.82,60.83-14,123.14-13.92,185.26a57.5,57.5,0,0,1-4.22-7.86c-15.68-35.19-24.16-71.87-23.19-110.56.06-2.43-.91-4.88-1.41-7.32l-1.93.19c-.56,2-1.54,4-1.64,6-.84,18.78-3.26,37.7-1.89,56.33,2.85,38.84,7.75,77.53,11.75,116.28a75.7,75.7,0,0,1,0,7.83c-10.4-15.72-21.36-30.56-32.5-45.26a31.62,31.62,0,0,0-6.66-6c-10.68-7.8-23-2.51-24.55,10.72a42,42,0,0,0,.62,13.88c1.65,7.27,4.28,14.31,6.5,21.45l-8.7,5.22-20.49,16.5q3.16-13.23,6.33-26.51c4.2-13,8.39-26,12.36-38.21l-42.67,5.81,4.11-7.42L672.73,643l-19.08,1.53-.26-1,12.76-9.25a152.42,152.42,0,0,0,38.06-37.17c.24-.33.48-.67.71-1l-1.36.37c-.55-1.32-1.83-2.83-1.54-3.93,2.38-9,4.87-18,7.71-26.79,1.61-5,3.95-9.74,6.18-15.16-15.52-.94-30.9-.09-44.21-8.77,21.18-2.49,37.54-13,51.6-27.66l-.82-1.6-9.92,5.4a27.12,27.12,0,0,1,4.75-7.42c9.65-11.47,18.89-23.33,29.19-34.18,4.56-4.8,7.15-9.91,9.27-16-17.65-4.55-29.11-15.65-36.21-31.57-1.89-4.24-3.32-8.69-5-13l-4.68-33.27,1.4-.32,22.27,20.65c9.81,9.41,20.67,17.28,33.7,21.54s19.16,1.29,23.75-11.73c4.73-13.46,6.19-27.48,6.22-41.68l.57-17.17c-.58-18.93-1.16-37.86-1.75-57.15,8.32,15.49,13.49,31.88,17.73,48.61l2.52,18.82V387l11.83-19.13c1.64-2.65,3.29-5.27,4.94-7.91l-.06,0,1.38-1q14-15.51,28-31,2.24-2,4.48-4,29.67-26,59.36-52c1-.9,2.26-1.57,4.29-3-.48,2.76-.67,4.38-1,6q-4.89,20.88-9.84,41.77-4.38,13.94-8.77,27.88L900.1,369.58a46.63,46.63,0,0,0,4.64-2.35c3.59-2.38,6.92-5.22,10.69-7.26,10.76-5.84,21.68-11.38,32.54-17,5.89-2.25,11.71-4.71,17.68-6.73,17.15-5.78,34.37-11.38,51.56-17.05l51.21-12.58c.1.34.21.67.31,1l-21,17.23L1023.64,346c-4.84,4.79-10.07,9.25-14.41,14.45a116.62,116.62,0,0,0-11.46,16.86c-1.43,2.5-1.21,5.95-1.8,9.31,6.33-1.84,11.2-3.66,16.23-4.65,19.81-3.91,39.18-.58,58.25,4.61,44.92,12.24,85.9,33.28,125.53,57.18.33.2.48.7.87,1.3-17.84,2-35.85.9-53,6.79,13.92,7.39,23.69,18.85,33.56,30.06s19,22.63,28.42,34l-1.33,1.32-8.62-4.72-.77,1.48c14.07,14.91,30.62,25.4,51.83,27.94-13.51,8.71-28.82,7.75-44.21,8.75,2,4.92,4.18,9.23,5.67,13.75,3,9,5.75,18,8.24,27.18.52,1.92-.53,4.26-1.08,7.88,10.4,12.6,22.8,25.71,38.06,35.83l11.49,8.13-.09,1-17.7-1.29-12.82-2.62c1.5,2.57,2.44,4.2,3.38,5.82l-.49,1.45L1195.94,642C1200,654.67,1204.23,667.91,1208.46,681.15ZM707,592.94l-1.09.92-.51,1.23.91-.79L707,593l1-1.05c.28-.43.56-.87.83-1.31l-.43-.15c-.11.52-.21,1-.32,1.56Zm486.45-80.75-.06.62c.5,0,1,0,1.51-.09a1.51,1.51,0,0,0,0-.3C1194.42,512.33,1193.94,512.26,1193.46,512.19Z" transform="translate(-637.6 -216.83)" fill="#020201"/><path d="M733.24,685c-2.22-7.14-4.85-14.18-6.5-21.45a42,42,0,0,1-.62-13.88c1.5-13.23,13.87-18.52,24.55-10.72a31.62,31.62,0,0,1,6.66,6c11.14,14.7,22.1,29.54,32.5,45.26a75.7,75.7,0,0,0,0-7.83c-4-38.75-8.9-77.44-11.75-116.28-1.37-18.63,1.05-37.55,1.89-56.33.1-2,1.08-4,1.64-6l1.93-.19c.5,2.44,1.47,4.89,1.41,7.32-1,38.69,7.51,75.37,23.19,110.56a57.5,57.5,0,0,0,4.22,7.86c0-62.12-3.9-124.43,13.92-185.26,12.67,30.08,31.43,55.78,52.73,79.77A452.56,452.56,0,0,0,949.4,588.3c-.93-1.6-1.8-3.24-2.81-4.79-22.15-34.1-43.89-68.46-62.09-104.86-6.52-13-11.62-26.85-16.76-40.54-1.58-4.2-1.13-9.17-1.61-13.78l1.82-.75c3.78,2,7.89,3.57,11.27,6.12,8,6,16.34,11.74,23.21,18.88,19.94,20.76,39.22,42.15,58.76,63.3a23.89,23.89,0,0,0-1.08,4.63c-1.66,50.8,3.42,101.74-3.05,152.46a4.07,4.07,0,0,0-.4.91c-4.17,21.48-8.37,43-12.41,64.48-.22,1.15.55,3.36,1.4,3.7,4.71,1.87,9.6,3.31,14.42,4.91q0,14.91-.05,29.84-74.37,4.14-133.92-41a89.28,89.28,0,0,0,4.54,14.32c14.8,33.88,41.66,53.5,76.19,63.82C924.15,815.09,942,817,960,817.35l.07,13.63-37.49-3.64c12.2,3.8,24.57,6.9,37.56,6.72l-.21,28.3c-4.33-.82-8.92-1-13-2.56-31.76-12.44-61-29.62-88.62-49.41-13.3-9.53-25.13-21.1-37.64-31.73a5.3,5.3,0,0,0-1.34-.62,149.35,149.35,0,0,1-16.8-37.45c-.39-1.34-.94-2.64-1.54-4.28-4.42,7-6.86,8.12-14.23,6.87-6.73-4-13.46-8.07-20.16-12.15-1.52-.92-2.93-2-4.39-3l-24-32.87Z" transform="translate(-637.6 -216.83)" fill="#c5ad8d"/><path d="M959.93,862.36l.21-28.3c13.49-.1,26.43-3,38.61-7L960.07,831q0-6.81-.07-13.63c13.51-1.45,27.2-2,40.5-4.51,31.23-5.93,58-20.06,77.3-46.17a95.09,95.09,0,0,0,16.55-35.8c-40.16,31-84.72,44.7-134.33,41.94q0-14.92.05-29.84h0c4.11-1.21,8.18-2.57,12.34-3.59,3.4-.83,4-2.75,3.4-5.9-3.64-18.5-7.18-37-10.76-55.52-1.3-6.72-2.64-13.42-4-20.13l-1,.16v11h-3c6.47-50.72,1.39-101.66,3.05-152.46a23.89,23.89,0,0,1,1.08-4.63q23.25,28.41,46.49,56.83c4.7,5.77,9.15,11.74,14.11,17.42-7.13-41.3-18.75-81.3-32.64-122,14.6,15.91,28.18,31.33,42.44,46.07s29.43,29,44.72,43.18l-67.17-122,.84-.88a50,50,0,0,1,4.72,3.67c35.38,35.13,63.3,75,78.37,123.1,5.52,17.63,12.07,34.94,18.16,52.4a22.72,22.72,0,0,0,2.29,5c2.31-34,3.89-68,1.55-102.59,1.91,2.84,4.13,5.53,5.66,8.56,6.1,12.07,8.52,25.2,10.26,38.44,3.88,29.68,4,59.5,2.37,89.32-.76,13.42-2.71,26.78-4.1,40.16-.11,1-.12,2.11-.21,3.75,6.14-9.25,11.67-18.1,17.73-26.55,5.34-7.43,11.19-14.5,17-21.57a31.49,31.49,0,0,1,6-5.27c10.52-7.62,22.94-2.51,24.23,10.54a57,57,0,0,1-1.7,19.7c-5.61,21.23-17.27,39.16-31.88,55.31a42.57,42.57,0,0,0-3.06,4.32c-3.8,2.87-7.4,6.08-11.47,8.52-4.37,2.62-9.17,4.51-13.79,6.73-5.76.1-10.39-1.74-12.73-8.11a18.43,18.43,0,0,0-1.13,2.24c-4.19,13.71-8.74,27.24-17.53,38.88-.38.49-.07,1.49-.08,2.26-4.89,4.18-9.86,8.27-14.66,12.54-18,16-38,29.17-58.83,40.89-17.49,9.83-35.72,18.36-53.84,27C969.32,861.58,964.41,861.52,959.93,862.36ZM1095.41,700.7c-8.42,2.23-16,4.75-23.71,6.14-9.64,1.72-9.71,1.31-13-7.64-.06-.18-.51-.22-1.15-.47v8.49H1042.5a6.92,6.92,0,0,0,3.8,1.56c7.2.3,13.8,1.41,15.66,10.21v-8.4a37.22,37.22,0,0,0,5.63-.42c10.59-2.45,21.16-5,31.74-7.57.17-1.61.32-3.06.39-3.7l-10.23-7.74-.82.79Zm6.06,3.51v-.37l.15,0Z" transform="translate(-637.6 -216.83)" fill="#d5c1a2"/><path d="M813.81,345.23c-4.24-16.73-9.41-33.12-17.73-48.61.59,19.29,1.17,38.22,1.75,57.15-2.05,1.06-4.15,2-6.15,3.19-17.58,10.16-33.21,22.83-47.54,37.14-2.53-22.8,2.05-44.45,11.43-65.08,16.5-36.32,44.28-62,78.6-81,32.38-18,67.3-27.57,104.18-30.29,52.06-3.84,101.57,5,147.55,30.32,34.25,18.81,61.84,44.5,78.41,80.58,9.54,20.76,14.09,42.57,11.64,65.54-.87-.77-1.79-1.48-2.6-2.3C1153.87,372,1131.08,357,1106,345.26c-18.74-8.8-38.26-15.29-58.26-20.46l21-17.23c-.1-.33-.21-.66-.31-1l-51.21,12.58c-32.4-5.44-64.93-5.66-97.55-2.32q4.94-20.9,9.84-41.77c.38-1.59.57-3.21,1-6-2,1.39-3.26,2.06-4.29,3Q896.56,298,866.9,324l-4.49,4a22.39,22.39,0,0,0-3.87.7Q836.16,336.91,813.81,345.23Z" transform="translate(-637.6 -216.83)" fill="#e6af41"/><path d="M1253.64,635.24c-15.26-10.12-27.66-23.23-38.06-35.83.55-3.62,1.6-6,1.08-7.88-2.49-9.13-5.27-18.19-8.24-27.18-1.49-4.52-3.62-8.83-5.67-13.75,15.39-1,30.7,0,44.21-8.75-21.21-2.54-37.76-13-51.83-27.94l.77-1.48,8.62,4.72,1.33-1.32c-9.45-11.34-18.67-22.89-28.42-34s-19.64-22.67-33.56-30.06c17.13-5.89,35.14-4.79,53-6.79-.39-.6-.54-1.1-.87-1.3-39.63-23.9-80.61-44.94-125.53-57.18-19.07-5.19-38.44-8.52-58.25-4.61-5,1-9.9,2.81-16.23,4.65.59-3.36.37-6.81,1.8-9.31a116.62,116.62,0,0,1,11.46-16.86c4.34-5.2,9.57-9.66,14.42-14.45,5.19,1,10.36,2,15.57,2.87,47.15,7.69,92.06,21.94,133.87,45.38a12.17,12.17,0,0,0,3.13.78c2.25,1.67,4.4,3.51,6.77,5,30.24,18.94,57.13,41.55,76,72.32,31.9,52.14,31.22,104.38-.91,156.28C1256.64,630.84,1255.11,633,1253.64,635.24Z" transform="translate(-637.6 -216.83)" fill="#e5ae41"/><path d="M714.6,415.75c1.64,4.35,3.07,8.8,5,13,7.1,15.92,18.56,27,36.21,31.57-2.12,6.12-4.71,11.23-9.27,16-10.3,10.85-19.54,22.71-29.19,34.18a27.12,27.12,0,0,0-4.75,7.42l9.92-5.4.82,1.6c-14.06,14.67-30.42,25.17-51.6,27.66,13.31,8.68,28.69,7.83,44.21,8.77-2.23,5.42-4.57,10.17-6.18,15.16-2.84,8.84-5.33,17.81-7.71,26.79-.29,1.1,1,2.61,1.54,3.93.21.22.43.43.65.64a152.42,152.42,0,0,1-38.06,37.17c-30.25-43.33-37.34-89.72-17-139C662.74,462.27,686,436.67,714.6,415.75Z" transform="translate(-637.6 -216.83)" fill="#e5af41"/><path d="M1176.22,395a12.17,12.17,0,0,1-3.13-.78c-41.81-23.44-86.72-37.69-133.87-45.38-5.21-.85-10.38-1.91-15.57-2.87l24.1-21.15c20,5.17,39.52,11.66,58.26,20.46,25.07,11.76,47.86,26.75,67.34,46.56.81.82,1.73,1.53,2.6,2.3Z" transform="translate(-637.6 -216.83)" fill="#c20f1a"/><path d="M797.26,370.94c0,14.2-1.49,28.22-6.22,41.68-4.59,13-10.64,16-23.75,11.73s-23.89-12.13-33.7-21.54L743.87,395a48.05,48.05,0,0,0,4.91-1.67Q773,382.16,797.26,370.94Z" transform="translate(-637.6 -216.83)" fill="#e4ad40"/><path d="M786.8,743.18c7.37,1.25,9.81.14,14.23-6.87.6,1.64,1.15,2.94,1.54,4.28A149.35,149.35,0,0,0,819.37,778l-19.5,16.66c-2-8.1-3.19-15.53.91-24.52l-18.28,2.17C783.89,762.89,785.34,753,786.8,743.18Z" transform="translate(-637.6 -216.83)" fill="#060606"/><path d="M1100.63,779.24c0-.77-.3-1.77.08-2.26,8.79-11.64,13.34-25.17,17.53-38.88a18.43,18.43,0,0,1,1.13-2.24c2.34,6.37,7,8.21,12.73,8.11q2.06,14.22,4.1,28.46l-16.46-2.21V795.4Z" transform="translate(-637.6 -216.83)" fill="#070707"/><path d="M1208.46,681.15c-4.23-13.24-8.47-26.48-12.52-39.17l41.47,5.78.49-1.45c-.94-1.62-1.88-3.25-3.38-5.82l12.82,2.62A183.56,183.56,0,0,1,1208.46,681.15Z" transform="translate(-637.6 -216.83)" fill="#e3ad41"/><path d="M672.73,643l11.45-2.58-4.11,7.42L722.74,642c-4,12.26-8.16,25.23-12.36,38.21A179.86,179.86,0,0,1,672.73,643Z" transform="translate(-637.6 -216.83)" fill="#e2ad41"/><path d="M738.22,695.14l24,32.87c-8.87,9.14-17.75,18.28-27.9,28.75,1-20,1.86-38.86,2.76-57.7Z" transform="translate(-637.6 -216.83)" fill="#070707"/><path d="M797.26,370.94Q773,382.12,748.78,393.29a48.05,48.05,0,0,1-4.91,1.67c.09-.29.17-.58.27-.86,14.33-14.31,30-27,47.54-37.14,2-1.15,4.1-2.13,6.15-3.19Z" transform="translate(-637.6 -216.83)" fill="#c1121a"/><path d="M738.22,695.14l-1.11,3.92-12.56-8.82,8.69-5.22Z" transform="translate(-637.6 -216.83)" fill="#deab45"/><path d="M919.66,316.83c32.62-3.34,65.15-3.12,97.55,2.32-17.19,5.67-34.41,11.27-51.56,17.05-6,2-11.79,4.48-17.68,6.73l-37.08,1.78Q915.27,330.76,919.66,316.83Z" transform="translate(-637.6 -216.83)" fill="#c00d19"/><path d="M813.81,345.23q22.37-8.3,44.73-16.56a22.39,22.39,0,0,1,3.87-.7q-14,15.51-28,31L833,360l.06,0-16.77,4.09Z" transform="translate(-637.6 -216.83)" fill="#bf0e19"/><path d="M910.89,344.71,948,342.93c-10.86,5.66-21.78,11.2-32.54,17-3.77,2-7.1,4.88-10.69,7.26a46.63,46.63,0,0,1-4.64,2.35Z" transform="translate(-637.6 -216.83)" fill="#dfa83e"/><path d="M816.33,364.05,833.1,360c-1.65,2.64-3.3,5.26-4.94,7.91L816.33,387Z" transform="translate(-637.6 -216.83)" fill="#d7a23c"/><path d="M1193.46,512.19c.48.07,1,.14,1.44.23a1.51,1.51,0,0,1,0,.3c-.5,0-1,.07-1.51.09Z" transform="translate(-637.6 -216.83)" fill="#e5ae41"/><path d="M708.07,592l.32-1.56.43.15c-.27.44-.55.88-.83,1.31Z" transform="translate(-637.6 -216.83)" fill="#e5af41"/><path d="M833,360l1.38-1Z" transform="translate(-637.6 -216.83)" fill="#d7a23c"/><path d="M706.32,594.31l-.91.78.51-1.23A5.82,5.82,0,0,1,706.32,594.31Z" transform="translate(-637.6 -216.83)" fill="#e5af41"/><path d="M707,593l-.71,1.33c-.13-.15-.26-.3-.4-.44l1.09-.92Z" transform="translate(-637.6 -216.83)" fill="#e5af41"/><path d="M707,592.94l1.06-.92-.08-.1L707,593Z" transform="translate(-637.6 -216.83)" fill="#e5af41"/><path d="M703.56,596.5l1.36-.37c-.23.34-.47.68-.71,1C704,596.93,703.77,596.72,703.56,596.5Z" transform="translate(-637.6 -216.83)" fill="#e5af41"/><path d="M960,772.81c49.61,2.76,94.17-10.92,134.33-41.94a95.09,95.09,0,0,1-16.55,35.8c-19.32,26.11-46.07,40.24-77.3,46.17-13.3,2.52-27,3.06-40.5,4.51-18-.38-35.85-2.26-53.17-7.44-34.53-10.32-61.39-29.94-76.19-63.82a89.28,89.28,0,0,1-4.54-14.32Q885.79,776.92,960,772.81Zm-88.81,3-1.91-3.62-4.56,3,6,1.14c1.86,1.29,3.54,3.2,5.59,3.77,13.74,3.78,27.51,7.52,41.38,10.76,7.3,1.71,14.83,2.4,22.26,3.55l.23-1.48c-11.65-2-23.46-3.45-34.92-6.31S882.56,779.46,871.21,775.79ZM979.83,793.2c11.42,2.12,61.85-10,67.35-16.37C1025.15,786.15,1002.27,788.74,979.83,793.2Zm77.6-24.26-9.51,6.75.78,1.3c5.57-1.81,10.37-6.19,16.66-5.26Zm-203.55,2.67v.77h11.47L863.11,769Z" transform="translate(-637.6 -216.83)" fill="#fdfdfc"/><path d="M957.06,669h3v74h0c-4.82-1.6-9.71-3-14.42-4.91-.85-.34-1.62-2.55-1.4-3.7,4-21.51,8.24-43,12.41-64.48A4.07,4.07,0,0,1,957.06,669Z" transform="translate(-637.6 -216.83)" fill="#d6c1a2"/><path d="M960.07,831l38.68-3.88c-12.18,3.91-25.12,6.86-38.61,7-13,.18-25.36-2.92-37.56-6.72Z" transform="translate(-637.6 -216.83)" fill="#b9a286"/><path d="M960.05,743V658l1-.16c1.32,6.71,2.66,13.41,4,20.13,3.58,18.5,7.12,37,10.76,55.52.63,3.15,0,5.07-3.4,5.9C968.23,740.41,964.16,741.77,960.05,743Z" transform="translate(-637.6 -216.83)" fill="#c5ad8d"/><path d="M1095.41,700.7l-6.74-8.75.82-.79,10.23,7.74c-.07.64-.22,2.09-.39,3.7-10.58,2.54-21.15,5.12-31.74,7.57a37.22,37.22,0,0,1-5.63.42V719c-1.86-8.8-8.46-9.91-15.66-10.21a6.92,6.92,0,0,1-3.8-1.56h15.08v-8.49c.64.25,1.09.29,1.15.47,3.26,8.95,3.33,9.36,13,7.64C1079.45,705.45,1087,702.93,1095.41,700.7Z" transform="translate(-637.6 -216.83)" fill="#211e19"/><polygon points="463.86 487.39 464.02 487.06 463.87 487.01 463.86 487.39" fill="#211e19"/><path d="M871.21,775.78c11.35,3.68,22.54,8,34.09,10.85s23.27,4.27,34.92,6.31l-.23,1.48c-7.43-1.15-15-1.84-22.26-3.55-13.87-3.24-27.64-7-41.38-10.76-2.05-.57-3.73-2.48-5.59-3.77Z" transform="translate(-637.6 -216.83)" fill="#c4c4c4"/><path d="M979.83,793.2c22.44-4.46,45.32-7.05,67.35-16.37C1041.68,783.22,991.25,795.32,979.83,793.2Z" transform="translate(-637.6 -216.83)" fill="#c4c4c4"/><path d="M1057.43,768.94l7.93,2.79c-6.29-.93-11.09,3.45-16.66,5.26l-.78-1.3Z" transform="translate(-637.6 -216.83)" fill="#c4c4c4"/><path d="M853.88,771.61l9.23-2.62,2.25,3.39H853.89Z" transform="translate(-637.6 -216.83)" fill="#c4c4c4"/><path d="M870.76,776.34l-6-1.14,4.56-3,1.91,3.62C871.06,776,870.91,776.15,870.76,776.34Z" transform="translate(-637.6 -216.83)" fill="#c4c4c4"/></svg>