<?xml version="1.0" standalone="no"?>
<!DOCTYPE svg PUBLIC "-//W3C//DTD SVG 20010904//EN"
 "http://www.w3.org/TR/2001/REC-SVG-20010904/DTD/svg10.dtd">
<svg version="1.0" xmlns="http://www.w3.org/2000/svg"
 width="646.000000pt" height="646.000000pt" viewBox="0 0 646.000000 646.000000"
 preserveAspectRatio="xMidYMid meet">
<metadata>
Created by potrace 1.14, written by Peter Selinger 2001-2017
</metadata>
<g transform="translate(0.000000,646.000000) scale(0.100000,-0.100000)"
fill="#000000" stroke="none">
<path d="M2595 5645 l-324 -285 -243 -90 c-133 -50 -245 -90 -250 -90 -4 0
-12 19 -18 43 -22 88 -83 264 -117 339 -34 75 -58 102 -49 56 3 -13 8 -136 11
-274 l6 -250 -88 -54 c-92 -56 -197 -131 -272 -194 -89 -75 -174 -156 -168
-162 3 -3 118 47 257 110 138 64 255 116 260 116 5 0 7 -30 4 -67 -18 -241
-64 -400 -131 -453 -44 -35 -135 -24 -243 27 -111 53 -152 84 -330 247 -82 75
-153 136 -158 136 -13 0 35 -326 58 -386 73 -196 169 -305 326 -369 45 -18 58
-29 56 -42 -8 -40 -47 -98 -121 -181 -130 -145 -291 -344 -291 -359 0 -10 13
-6 45 13 105 61 10 -48 -117 -134 -75 -51 -185 -100 -264 -118 -41 -9 -74 -18
-74 -20 0 -7 63 -36 109 -50 52 -15 202 -34 274 -34 26 0 47 -2 47 -4 0 -2
-11 -28 -24 -57 -24 -55 -73 -207 -99 -311 -12 -47 -13 -60 -2 -75 11 -15 9
-23 -18 -58 -72 -92 -221 -234 -345 -327 -73 -55 -132 -102 -129 -104 7 -7
219 14 256 26 43 12 47 8 25 -24 -9 -15 -14 -30 -10 -33 3 -4 41 -1 84 5 217
31 312 43 320 40 5 -1 -15 -77 -45 -168 -55 -168 -128 -448 -119 -457 2 -3 46
29 98 70 51 41 112 86 135 101 24 14 43 31 43 37 0 7 -15 59 -32 118 -52 171
-44 275 27 341 22 21 37 25 83 25 100 0 153 -54 404 -412 47 -67 88 -117 90
-110 4 11 -14 208 -42 462 -6 55 -15 138 -20 185 -15 130 -39 390 -51 540 -15
189 9 631 35 658 16 15 26 -28 26 -113 1 -273 50 -559 143 -831 43 -126 116
-294 128 -294 5 0 9 203 9 473 0 482 11 697 45 929 18 118 58 312 78 378 l13
45 67 -131 c203 -397 592 -849 1035 -1201 64 -51 118 -91 120 -89 2 2 -59 102
-136 222 -342 538 -504 838 -626 1156 -44 115 -56 158 -56 202 0 31 2 56 5 56
19 0 124 -63 201 -122 169 -127 636 -632 1020 -1103 148 -182 279 -343 292
-359 12 -16 24 -27 27 -24 7 6 -45 258 -94 453 -38 155 -144 516 -195 663 -14
39 -23 72 -21 72 2 0 91 -96 199 -214 191 -209 635 -651 644 -641 3 2 -143
272 -323 600 -180 328 -324 599 -321 603 10 10 219 -209 321 -336 162 -200
311 -440 402 -645 25 -56 78 -199 118 -317 90 -266 172 -497 183 -517 13 -22
21 70 32 369 6 139 8 336 5 438 -6 173 -5 184 10 165 112 -136 169 -484 168
-1020 0 -252 -4 -346 -22 -502 -12 -106 -21 -202 -19 -214 2 -16 28 15 100
123 123 184 248 339 302 374 56 38 123 43 169 15 52 -32 72 -81 71 -176 -1
-189 -110 -425 -299 -652 -36 -43 -65 -80 -65 -83 1 -3 57 -63 125 -135 l124
-130 1 238 c0 130 2 237 5 237 3 0 31 -16 61 -35 30 -19 57 -35 61 -35 3 0 4
54 1 120 -3 66 -3 120 -1 120 3 0 46 -36 96 -80 50 -44 92 -78 94 -77 6 7 -72
301 -122 456 -30 95 -53 176 -51 178 3 3 88 -6 189 -21 102 -14 193 -26 202
-26 17 0 17 11 0 51 -6 15 -1 16 57 4 83 -17 230 -27 226 -16 -2 5 -48 42
-103 81 -130 94 -206 161 -300 265 l-77 85 -3 67 c-2 69 -46 223 -99 352 -14
36 -26 68 -26 73 0 4 24 8 53 8 129 0 312 37 362 74 16 12 11 15 -47 26 -81
15 -193 63 -272 115 -64 42 -176 142 -176 156 0 5 20 -1 45 -13 24 -12 47 -19
51 -15 7 6 -103 144 -257 322 -111 128 -241 254 -302 293 l-48 30 33 11 c62
19 153 31 313 42 88 6 164 14 168 19 19 18 -533 314 -773 414 -236 99 -459
169 -650 206 -142 28 -339 27 -446 -1 -139 -37 -128 -38 -122 9 8 57 85 171
184 273 l84 86 188 -34 c453 -81 813 -197 1163 -374 86 -43 160 -79 165 -79
14 0 -75 88 -169 166 -256 215 -614 397 -982 499 -55 16 -103 31 -108 35 -5 5
139 131 187 162 35 23 -30 12 -250 -42 l-249 -61 -140 18 c-151 19 -642 26
-779 10 -59 -7 -68 -6 -63 8 5 11 69 284 102 433 3 12 1 22 -5 22 -5 0 -156
-128 -335 -285z m505 -449 c0 -2 -70 -41 -155 -85 -85 -44 -187 -102 -225
-127 -39 -26 -72 -45 -74 -43 -3 4 90 229 99 237 2 2 70 7 152 11 81 5 160 9
176 9 15 1 27 0 27 -2z m-1217 -298 c-42 -68 -77 -125 -79 -127 -2 -2 -4 45
-4 106 l0 111 58 14 c110 29 110 32 25 -104z"/>
<path d="M4551 1665 c18 -25 30 -47 28 -49 -11 -9 -255 -66 -286 -66 -31 0
-36 4 -51 40 -22 51 -32 51 -32 0 l0 -40 -72 -1 -73 -1 65 -14 c49 -10 72 -21
92 -44 34 -37 40 -37 36 -4 -3 26 0 28 82 45 221 46 285 65 288 86 2 15 -11
31 -46 57 -27 20 -53 36 -56 36 -4 0 7 -20 25 -45z"/>
<path d="M1006 1628 c-5 -39 -26 -480 -26 -538 0 -21 21 -4 135 110 86 86 134
141 132 151 -5 17 -212 305 -227 314 -5 3 -11 -14 -14 -37z"/>
<path d="M1614 1225 c-26 -29 -38 -35 -71 -35 l-41 0 -16 -112 c-10 -62 -20
-128 -23 -147 -5 -32 -5 -33 23 -28 16 3 57 9 92 12 l62 7 -10 -27 c-11 -29
-12 -170 -2 -197 6 -14 24 -3 103 63 l96 81 -57 113 c-32 62 -72 156 -90 209
-17 53 -32 96 -33 96 -1 0 -16 -16 -33 -35z"/>
<path d="M4786 1155 c-36 -106 -86 -212 -125 -270 -12 -16 -21 -35 -21 -41 0
-11 173 -164 185 -164 3 0 5 55 5 121 l0 121 58 -7 c31 -3 67 -9 80 -12 18 -4
22 -1 22 18 0 56 -34 261 -44 264 -6 2 -24 6 -39 10 -16 3 -41 19 -57 36 l-27
30 -37 -106z"/>
</g>
</svg>
